<svg id="visual" viewBox="0 0 900 600" width="900" height="600" xmlns="http://www.w3.org/2000/svg" xmlns:xlink="http://www.w3.org/1999/xlink" version="1.1"><rect x="0" y="0" width="900" height="600" fill="#DFE8E6"></rect><path d="M0 510L18.8 511.5C37.7 513 75.3 516 112.8 523.5C150.3 531 187.7 543 225.2 550.3C262.7 557.7 300.3 560.3 337.8 555.7C375.3 551 412.7 539 450.2 531C487.7 523 525.3 519 562.8 522.5C600.3 526 637.7 537 675.2 543.2C712.7 549.3 750.3 550.7 787.8 553.7C825.3 556.7 862.7 561.3 881.3 563.7L900 566L900 601L881.3 601C862.7 601 825.3 601 787.8 601C750.3 601 712.7 601 675.2 601C637.7 601 600.3 601 562.8 601C525.3 601 487.7 601 450.2 601C412.7 601 375.3 601 337.8 601C300.3 601 262.7 601 225.2 601C187.7 601 150.3 601 112.8 601C75.3 601 37.7 601 18.8 601L0 601Z" fill="#CBD1D0" stroke-linecap="round" stroke-linejoin="miter"></path></svg>